<svg xmlns="http://www.w3.org/2000/svg" xmlns:xlink="http://www.w3.org/1999/xlink" width="500" zoomAndPan="magnify" viewBox="0 0 375 374.999991" height="500" preserveAspectRatio="xMidYMid meet" version="1.0"><defs><g/></defs><g fill="#ffffff" fill-opacity="1"><g transform="translate(189.599334, 193.874987)"><g><path d="M 8.273438 0.261719 C 11.691406 0.261719 14.460938 -1.808594 15.304688 -4.941406 L 13.4375 -4.941406 C 12.714844 -2.832031 10.726562 -1.507812 8.335938 -1.507812 C 5.203125 -1.507812 2.972656 -3.777344 2.972656 -7.03125 C 2.972656 -10.285156 5.203125 -12.554688 8.335938 -12.554688 C 10.664062 -12.554688 12.574219 -11.308594 13.296875 -9.277344 L 15.183594 -9.277344 C 14.261719 -12.371094 11.589844 -14.320312 8.273438 -14.320312 C 4.136719 -14.320312 1.164062 -11.269531 1.164062 -7.03125 C 1.164062 -2.792969 4.136719 0.261719 8.273438 0.261719 Z M 8.273438 0.261719 "/></g></g></g><g fill="#ffffff" fill-opacity="1"><g transform="translate(207.506681, 193.874987)"><g><path d="M 2.046875 0 L 3.816406 0 L 3.816406 -5.042969 L 6.910156 -5.042969 L 10.34375 0 L 12.472656 0 L 8.9375 -5.222656 C 10.988281 -5.722656 12.25 -7.269531 12.25 -9.539062 C 12.25 -12.332031 10.324219 -14.058594 7.410156 -14.058594 L 2.046875 -14.058594 Z M 3.816406 -6.726562 L 3.816406 -12.371094 L 7.210938 -12.371094 C 9.257812 -12.371094 10.445312 -11.328125 10.445312 -9.539062 C 10.445312 -7.753906 9.257812 -6.726562 7.210938 -6.726562 Z M 3.816406 -6.726562 "/></g></g></g><g fill="#ffffff" fill-opacity="1"><g transform="translate(222.70401, 193.874987)"><g><path d="M 2.046875 0 L 10.804688 0 L 10.804688 -1.648438 L 3.816406 -1.648438 L 3.816406 -6.347656 L 10.082031 -6.347656 L 10.082031 -7.972656 L 3.816406 -7.972656 L 3.816406 -12.414062 L 10.585938 -12.414062 L 10.585938 -14.058594 L 2.046875 -14.058594 Z M 2.046875 0 "/></g></g></g><g fill="#ffffff" fill-opacity="1"><g transform="translate(236.335559, 193.874987)"><g><path d="M 0.339844 0 L 2.230469 0 L 3.515625 -3.195312 L 10.363281 -3.195312 L 11.691406 0 L 13.558594 0 L 7.773438 -14.058594 L 6.125 -14.058594 Z M 4.199219 -4.839844 L 6.949219 -11.589844 L 9.699219 -4.839844 Z M 4.199219 -4.839844 "/></g></g></g><g fill="#ffffff" fill-opacity="1"><g transform="translate(251.753714, 193.874987)"><g><path d="M 5.441406 0 L 7.210938 0 L 7.210938 -12.371094 L 11.949219 -12.371094 L 11.949219 -14.058594 L 0.683594 -14.058594 L 0.683594 -12.371094 L 5.441406 -12.371094 Z M 5.441406 0 "/></g></g></g><g fill="#ffffff" fill-opacity="1"><g transform="translate(265.927267, 193.874987)"><g><path d="M 2.046875 0 L 3.816406 0 L 3.816406 -14.058594 L 2.046875 -14.058594 Z M 2.046875 0 "/></g></g></g><g fill="#ffffff" fill-opacity="1"><g transform="translate(273.315743, 193.874987)"><g><path d="M 8.4375 0.261719 C 12.714844 0.261719 15.726562 -2.75 15.726562 -7.03125 C 15.726562 -11.308594 12.714844 -14.320312 8.4375 -14.320312 C 4.15625 -14.320312 1.164062 -11.308594 1.164062 -7.03125 C 1.164062 -2.75 4.15625 0.261719 8.4375 0.261719 Z M 2.972656 -7.03125 C 2.972656 -10.304688 5.203125 -12.554688 8.4375 -12.554688 C 11.667969 -12.554688 13.898438 -10.304688 13.898438 -7.03125 C 13.898438 -3.757812 11.667969 -1.507812 8.4375 -1.507812 C 5.203125 -1.507812 2.972656 -3.757812 2.972656 -7.03125 Z M 2.972656 -7.03125 "/></g></g></g><g fill="#ffffff" fill-opacity="1"><g transform="translate(291.704876, 193.874987)"><g><path d="M 2.046875 0 L 3.796875 0 L 3.796875 -11.007812 L 11.570312 0 L 13.214844 0 L 13.214844 -14.058594 L 11.488281 -14.058594 L 11.488281 -3.054688 L 3.714844 -14.058594 L 2.046875 -14.058594 Z M 2.046875 0 "/></g></g></g><g fill="#ffffff" fill-opacity="1"><g transform="translate(308.48807, 193.874987)"><g><path d="M 6.726562 0.261719 C 9.800781 0.261719 11.789062 -1.246094 11.789062 -3.695312 C 11.789062 -5.765625 10.402344 -7.007812 6.808594 -7.894531 C 4.078125 -8.554688 3.171875 -9.277344 3.171875 -10.445312 C 3.171875 -11.789062 4.378906 -12.632812 6.386719 -12.632812 C 8.457031 -12.632812 9.742188 -11.589844 9.78125 -9.902344 L 11.527344 -9.902344 C 11.507812 -12.632812 9.539062 -14.320312 6.386719 -14.320312 C 3.3125 -14.320312 1.367188 -12.8125 1.367188 -10.445312 C 1.367188 -8.273438 2.914062 -7.070312 6.367188 -6.246094 C 8.898438 -5.644531 9.960938 -4.941406 9.960938 -3.636719 C 9.960938 -2.25 8.71875 -1.425781 6.726562 -1.425781 C 4.539062 -1.425781 3.011719 -2.511719 2.972656 -4.316406 L 1.207031 -4.316406 C 1.226562 -1.566406 3.375 0.261719 6.726562 0.261719 Z M 6.726562 0.261719 "/></g></g></g><g fill="#ff5757" fill-opacity="1"><g transform="translate(322.99386, 193.874987)"><g><path d="M 2.570312 0.160156 C 3.394531 0.160156 3.9375 -0.402344 3.9375 -1.164062 C 3.9375 -1.929688 3.394531 -2.46875 2.570312 -2.46875 C 1.765625 -2.46875 1.226562 -1.929688 1.226562 -1.164062 C 1.226562 -0.402344 1.765625 0.160156 2.570312 0.160156 Z M 2.570312 0.160156 "/></g></g></g><g fill="#ffffff" fill-opacity="1"><g transform="translate(55.349658, 193.874987)"><g><path d="M 1.484375 0 L 5.503906 0 L 5.503906 -7.128906 L 8.214844 -3.335938 L 10.847656 -3.335938 L 13.539062 -7.109375 L 13.539062 0 L 17.554688 0 L 17.554688 -14.058594 L 14.261719 -14.058594 L 9.519531 -7.371094 L 4.800781 -14.058594 L 1.484375 -14.058594 Z M 1.484375 0 "/></g></g></g><g fill="#ffffff" fill-opacity="1"><g transform="translate(74.379991, 193.874987)"><g><path d="M 1.484375 0 L 11.347656 0 L 11.347656 -3.3125 L 5.503906 -3.3125 L 5.503906 -5.484375 L 10.585938 -5.484375 L 10.585938 -8.738281 L 5.503906 -8.738281 L 5.503906 -10.785156 L 11.128906 -10.785156 L 11.128906 -14.058594 L 1.484375 -14.058594 Z M 1.484375 0 "/></g></g></g><g fill="#ffffff" fill-opacity="1"><g transform="translate(86.625248, 193.874987)"><g><path d="M 8.195312 0.300781 C 13.035156 0.300781 16.066406 -3.214844 15.625 -8.15625 L 7.492188 -8.15625 L 7.492188 -5.300781 L 11.367188 -5.300781 C 10.964844 -4.117188 9.839844 -3.3125 8.234375 -3.3125 C 5.984375 -3.3125 4.679688 -4.902344 4.679688 -7.03125 C 4.679688 -9.238281 6.105469 -10.746094 8.195312 -10.746094 C 9.441406 -10.746094 10.503906 -10.203125 11.046875 -9.320312 L 15.363281 -9.320312 C 14.542969 -12.390625 11.691406 -14.359375 8.132812 -14.359375 C 3.714844 -14.359375 0.683594 -11.347656 0.683594 -7.03125 C 0.683594 -2.691406 3.734375 0.300781 8.195312 0.300781 Z M 8.195312 0.300781 "/></g></g></g><g fill="#ffffff" fill-opacity="1"><g transform="translate(102.92549, 193.874987)"><g><path d="M 0.101562 0 L 4.398438 0 L 5.160156 -1.988281 L 9.960938 -1.988281 L 10.726562 0 L 15.042969 0 L 9.582031 -14.058594 L 5.5625 -14.058594 Z M 6.003906 -4.960938 L 7.570312 -9.320312 L 9.140625 -4.960938 Z M 6.003906 -4.960938 "/></g></g></g><g fill="#ffffff" fill-opacity="1"><g transform="translate(118.061422, 193.874987)"><g><path d="M 1.484375 0 L 8.695312 0 C 11.550781 0 13.539062 -1.605469 13.539062 -3.917969 C 13.539062 -5.402344 12.734375 -6.609375 11.410156 -7.191406 C 12.492188 -7.8125 13.117188 -8.9375 13.117188 -10.285156 C 13.117188 -12.59375 11.269531 -14.058594 8.335938 -14.058594 L 1.484375 -14.058594 Z M 5.464844 -3.011719 L 5.464844 -5.644531 L 7.914062 -5.644531 C 8.878906 -5.644531 9.417969 -5.160156 9.417969 -4.339844 C 9.417969 -3.496094 8.878906 -3.011719 7.914062 -3.011719 Z M 5.464844 -8.535156 L 5.464844 -11.066406 L 7.570312 -11.066406 C 8.515625 -11.066406 9.039062 -10.605469 9.039062 -9.800781 C 9.039062 -8.976562 8.515625 -8.535156 7.570312 -8.535156 Z M 5.464844 -8.535156 "/></g></g></g><g fill="#ffffff" fill-opacity="1"><g transform="translate(132.173578, 193.874987)"><g><path d="M 1.484375 0 L 11.347656 0 L 11.347656 -3.3125 L 5.503906 -3.3125 L 5.503906 -5.484375 L 10.585938 -5.484375 L 10.585938 -8.738281 L 5.503906 -8.738281 L 5.503906 -10.785156 L 11.128906 -10.785156 L 11.128906 -14.058594 L 1.484375 -14.058594 Z M 1.484375 0 "/></g></g></g><g fill="#ffffff" fill-opacity="1"><g transform="translate(144.418835, 193.874987)"><g><path d="M 1.484375 0 L 5.542969 0 L 5.542969 -3.996094 L 7.070312 -3.996094 L 9.078125 0 L 13.679688 0 L 11.085938 -4.738281 C 12.574219 -5.5625 13.417969 -7.050781 13.417969 -9.019531 C 13.417969 -12.132812 11.308594 -14.058594 7.894531 -14.058594 L 1.484375 -14.058594 Z M 5.464844 -7.230469 L 5.464844 -10.746094 L 7.351562 -10.746094 C 8.636719 -10.746094 9.339844 -10.121094 9.339844 -9 C 9.339844 -7.875 8.636719 -7.230469 7.351562 -7.230469 Z M 5.464844 -7.230469 "/></g></g></g><g fill="#ffffff" fill-opacity="1"><g transform="translate(158.872253, 193.874987)"><g><path d="M 8.195312 0.300781 C 13.035156 0.300781 16.066406 -3.214844 15.625 -8.15625 L 7.492188 -8.15625 L 7.492188 -5.300781 L 11.367188 -5.300781 C 10.964844 -4.117188 9.839844 -3.3125 8.234375 -3.3125 C 5.984375 -3.3125 4.679688 -4.902344 4.679688 -7.03125 C 4.679688 -9.238281 6.105469 -10.746094 8.195312 -10.746094 C 9.441406 -10.746094 10.503906 -10.203125 11.046875 -9.320312 L 15.363281 -9.320312 C 14.542969 -12.390625 11.691406 -14.359375 8.132812 -14.359375 C 3.714844 -14.359375 0.683594 -11.347656 0.683594 -7.03125 C 0.683594 -2.691406 3.734375 0.300781 8.195312 0.300781 Z M 8.195312 0.300781 "/></g></g></g><g fill="#ffffff" fill-opacity="1"><g transform="translate(175.172495, 193.874987)"><g/></g></g><g fill="#ffffff" fill-opacity="1"><g transform="translate(179.80963, 193.874987)"><g><path d="M 1.789062 2.730469 L 5.324219 2.730469 L 5.324219 -16.066406 L 1.789062 -16.066406 Z M 1.789062 2.730469 "/></g></g></g></svg>